<svg xmlns="http://www.w3.org/2000/svg" id="Layer_1" enable-background="new 0 0 510 510" height="512" viewBox="0 0 510 510" width="512"><g id="XMLID_27_"><path id="XMLID_1919_" d="m0 180v135c0 66.275 53.726 120 120 120h7.5l10-90-10-60z" fill="#fff3c9"/><path id="XMLID_519_" d="m127.5 75c-33.443 0-65.022 10.529-88.92 29.647-24.879 19.904-38.58 46.664-38.58 75.353s13.701 55.449 38.58 75.353c23.898 19.118 55.477 29.647 88.92 29.647l10-105z" fill="#ffe278"/><path id="XMLID_459_" d="m127.5 285 67.5 10 60-10v-105c0-28.689-13.701-55.449-38.58-75.353-23.898-19.118-55.477-29.647-88.92-29.647v60l10 45-10 45z" fill="#ffb454"/><path id="XMLID_441_" d="m127.5 225c-17.308 0-33.816-4.568-46.485-12.863-13.355-8.746-21.015-20.459-21.015-32.137s7.66-23.391 21.015-32.137c12.669-8.295 29.177-12.863 46.485-12.863l10 45z" fill="#fff3c9"/><path id="XMLID_435_" d="m127.5 135c17.308 0 33.816 4.568 46.485 12.863 13.355 8.746 21.015 20.459 21.015 32.137s-7.66 23.391-21.015 32.137c-12.669 8.295-29.177 12.863-46.485 12.863z" fill="#ffe278"/><path id="XMLID_1543_" d="m435 285h-307.5v150h52.5l15-10 15 10h45l15-10 15 10h45l15-10 15 10h75l10-75z" fill="#ffe278"/><g fill="#ff884d"><path id="XMLID_4756_" d="m255 360h30v75h-30z"/><path id="XMLID_4755_" d="m330 375h30v60h-30z"/><path id="XMLID_4754_" d="m180 375h30v60h-30z"/></g><path id="XMLID_4631_" d="m435 285h75v150h-75z" fill="#ff4d4d"/></g></svg>
